<svg width="1600" height="720" viewBox="0 0 1600 720" fill="none" xmlns="http://www.w3.org/2000/svg">
  <rect width="1600" height="720" rx="40" fill="#EEF5F2"/>
  <circle cx="1210" cy="138" r="150" fill="#F3DFD4"/>
  <circle cx="184" cy="548" r="210" fill="#DAEFE7"/>
  <rect x="128" y="132" width="1344" height="456" rx="36" fill="white" fill-opacity="0.7"/>
  <rect x="186" y="194" width="310" height="72" rx="28" fill="#F8F4ED"/>
  <rect x="212" y="220" width="92" height="20" rx="10" fill="#9CBDB4"/>
  <rect x="322" y="220" width="118" height="20" rx="10" fill="#D9EDE5"/>
  <rect x="532" y="194" width="218" height="72" rx="28" fill="#E8F3EE"/>
  <rect x="570" y="220" width="138" height="20" rx="10" fill="#0F766E"/>
  <rect x="786" y="194" width="236" height="72" rx="28" fill="#F5E9DF"/>
  <rect x="826" y="220" width="154" height="20" rx="10" fill="#C8A898"/>
  <rect x="1058" y="194" width="176" height="72" rx="28" fill="#EDF5F1"/>
  <rect x="1092" y="220" width="108" height="20" rx="10" fill="#A9C7BE"/>
  <rect x="320" y="328" width="960" height="178" rx="34" fill="#FAF7F1"/>
  <path d="M474 380H1126" stroke="#D8EAE4" stroke-width="18" stroke-linecap="round"/>
  <circle cx="646" cy="380" r="28" fill="#0F766E"/>
  <circle cx="898" cy="380" r="28" fill="#D7B7A5"/>
  <circle cx="1080" cy="380" r="28" fill="#9FC2B8"/>
  <rect x="474" y="426" width="210" height="22" rx="11" fill="#E3EFE9"/>
  <rect x="704" y="426" width="174" height="22" rx="11" fill="#F1E3D7"/>
  <rect x="898" y="426" width="204" height="22" rx="11" fill="#DDEDE6"/>
</svg>
