<svg width="1600" height="720" viewBox="0 0 1600 720" fill="none" xmlns="http://www.w3.org/2000/svg">
  <rect width="1600" height="720" rx="40" fill="#EDF6F1"/>
  <circle cx="1270" cy="120" r="180" fill="#F4D8CB"/>
  <circle cx="220" cy="580" r="220" fill="#D8EFE7"/>
  <rect x="110" y="120" width="520" height="340" rx="28" fill="white" fill-opacity="0.88"/>
  <rect x="152" y="166" width="320" height="44" rx="22" fill="#E6F2ED"/>
  <circle cx="188" cy="188" r="12" fill="#0F766E"/>
  <rect x="214" y="178" width="220" height="20" rx="10" fill="#96B8AF"/>
  <rect x="152" y="240" width="150" height="28" rx="14" fill="#F2E5DC"/>
  <rect x="316" y="240" width="122" height="28" rx="14" fill="#E6F2ED"/>
  <rect x="452" y="240" width="120" height="28" rx="14" fill="#F8F2EA"/>
  <rect x="152" y="304" width="438" height="18" rx="9" fill="#D5E8E2"/>
  <rect x="152" y="336" width="398" height="18" rx="9" fill="#E4EEE9"/>
  <rect x="152" y="368" width="360" height="18" rx="9" fill="#EDE7DE"/>
  <rect x="760" y="124" width="600" height="120" rx="28" fill="white" fill-opacity="0.72"/>
  <rect x="804" y="164" width="160" height="24" rx="12" fill="#E3F0EB"/>
  <rect x="984" y="164" width="170" height="24" rx="12" fill="#F1E3D8"/>
  <rect x="1174" y="164" width="136" height="24" rx="12" fill="#E8EFE7"/>
  <rect x="760" y="278" width="310" height="260" rx="28" fill="white" fill-opacity="0.74"/>
  <rect x="1110" y="278" width="250" height="180" rx="28" fill="white" fill-opacity="0.62"/>
  <circle cx="930" cy="408" r="76" stroke="#0F766E" stroke-width="24"/>
  <line x1="985" y1="462" x2="1050" y2="527" stroke="#0F766E" stroke-width="24" stroke-linecap="round"/>
  <rect x="1150" y="320" width="170" height="18" rx="9" fill="#D6EAE4"/>
  <rect x="1150" y="352" width="140" height="18" rx="9" fill="#EDE4D9"/>
  <rect x="1150" y="384" width="154" height="18" rx="9" fill="#E2EEE8"/>
</svg>
